<svg width="32" height="33" viewBox="0 0 32 33" fill="none" xmlns="http://www.w3.org/2000/svg">
<path d="M26.3399 27.612L25.7714 25.281C25.735 25.1324 25.67 24.9929 25.5804 24.8711C25.4907 24.7492 25.3783 24.6474 25.2498 24.5719C25.1206 24.4952 24.978 24.446 24.8303 24.4272C24.6827 24.4084 24.5329 24.4203 24.3897 24.4624L17.7201 26.4161L13.1868 24.4319L18.923 22.9058C19.3146 22.543 19.5983 22.0716 19.7406 21.547L19.2908 19.8672L7.32599 21.3888H0V30.5182H7.32599L13.8534 31.985C14.2083 32.0186 14.5657 32.0099 14.9186 31.9592L25.556 28.986C25.835 28.9084 26.0738 28.7206 26.2212 28.4626C26.294 28.3356 26.3419 28.195 26.3623 28.0488C26.3827 27.9026 26.375 27.7537 26.3399 27.6105V27.612ZM4.39559 28.9967H1.4652V22.9103H4.39559V28.9967ZM14.5377 30.4909C14.4717 30.5087 14.4037 30.5179 14.3355 30.5182C14.2789 30.5185 14.2224 30.5123 14.167 30.5L7.32599 28.9404V22.9408L18.0644 21.5592L10.2564 24.4319L17.1736 27.8281L17.6381 28.0213L18.1186 27.8798L24.4424 26.0281L24.8292 27.6135L14.5377 30.4909Z" fill="#1FB9B3"/>
<path d="M15.6935 0L14.7033 1.01123L16.1767 2.51728L17.1655 1.50605L15.6928 0H15.6935ZM28.6165 0L27.1431 1.50605L28.1326 2.51728L29.6053 1.01195L28.6158 0H28.6165ZM22.1547 0.448795C21.9226 0.451672 21.6877 0.465337 21.4514 0.494825C21.4443 0.494825 21.4373 0.493387 21.4303 0.494825C18.5777 0.829264 16.3075 3.18616 15.913 6.09038C15.5979 8.42785 16.5403 10.5474 18.1107 11.9125C18.7531 12.4731 19.1876 13.2425 19.3415 14.0917V18.4071H20.945C21.1898 18.8364 21.6363 19.1263 22.1547 19.1263C22.673 19.1263 23.1196 18.8364 23.3643 18.4071H24.9678V15.5302H25.0339V14.6757C25.0339 13.6214 25.5699 12.5583 26.4405 11.732C27.6052 10.5395 28.4843 8.84572 28.4843 6.90022C28.4843 3.34726 25.6247 0.415711 22.1547 0.448795V0.448795ZM22.1547 1.88724C24.8729 1.8484 27.0777 4.12402 27.0777 6.90022C27.0777 8.40627 26.3955 9.73252 25.451 10.6977L25.4735 10.7207C24.5349 11.6059 23.9279 12.7984 23.7575 14.0924H20.6813C20.5266 12.8597 20.0096 11.6665 19.0328 10.8106C17.79 9.7318 17.0495 8.10636 17.297 6.2709C17.6044 4.00535 19.402 2.18356 21.6047 1.93399C21.7866 1.90806 21.9697 1.89269 22.1533 1.88796L22.1547 1.88724ZM12.3086 6.90022V8.33867H14.4185V6.90022H12.3086ZM29.8909 6.90022V8.33867H32.0007V6.90022H29.8909ZM16.1767 12.7216L14.704 14.2269L15.6935 15.2389L17.1648 13.7328L16.1767 12.7216ZM28.1326 12.7216L27.1438 13.7328L28.6158 15.2389L29.6053 14.2269L28.1326 12.7216ZM20.7481 15.5309H23.5613V16.9693H20.7481V15.5309Z" fill="#1FB9B3"/>
</svg>
